<?xml version="1.0" standalone="no"?>
<!DOCTYPE svg PUBLIC "-//W3C//DTD SVG 20010904//EN"
 "http://www.w3.org/TR/2001/REC-SVG-20010904/DTD/svg10.dtd">
<svg version="1.0" xmlns="http://www.w3.org/2000/svg"
 width="900.000000pt" height="900.000000pt" viewBox="0 0 900.000000 900.000000"
 preserveAspectRatio="xMidYMid meet">
<metadata>
Created by potrace 1.10, written by Peter Selinger 2001-2011
</metadata>
<g transform="translate(0.000000,900.000000) scale(0.100000,-0.100000)"
fill="#000000" stroke="none">
<path d="M4230 7062 c-25 -1 -100 -14 -168 -27 -68 -14 -135 -25 -148 -25 -14
0 -53 -11 -87 -24 -34 -13 -84 -29 -112 -36 -27 -7 -55 -17 -61 -21 -6 -5 -42
-18 -80 -29 -38 -12 -82 -27 -99 -35 -61 -27 -200 -97 -210 -105 -5 -4 -37
-22 -71 -39 -33 -17 -69 -40 -79 -51 -10 -11 -23 -20 -29 -20 -12 0 -97 -60
-157 -111 -20 -17 -51 -40 -69 -50 -44 -27 -343 -328 -373 -376 -14 -22 -48
-66 -77 -98 -28 -33 -60 -77 -71 -100 -38 -77 -58 -110 -75 -128 -10 -10 -27
-39 -39 -65 -18 -41 -43 -89 -74 -142 -5 -8 -17 -33 -26 -55 -10 -22 -24 -53
-31 -68 -8 -16 -14 -38 -14 -49 0 -11 -6 -34 -14 -51 -22 -48 -46 -125 -46
-147 0 -10 -9 -34 -20 -53 -11 -19 -25 -63 -29 -98 -5 -35 -19 -116 -30 -179
-23 -127 -35 -469 -21 -615 16 -162 46 -330 80 -441 6 -17 10 -39 10 -50 0
-11 6 -28 13 -39 7 -11 19 -45 26 -75 7 -30 21 -71 31 -90 10 -19 25 -55 35
-80 9 -25 24 -58 32 -75 9 -16 36 -70 61 -120 38 -77 68 -128 143 -242 73
-111 113 -163 129 -168 11 -4 20 -13 20 -20 0 -8 8 -20 17 -27 10 -7 31 -33
48 -57 16 -24 40 -48 52 -54 12 -5 25 -18 28 -28 6 -19 89 -93 173 -153 28
-21 52 -41 52 -46 0 -4 17 -16 38 -25 20 -10 41 -24 45 -31 4 -8 22 -21 40
-30 18 -9 46 -29 62 -44 17 -16 56 -43 89 -59 32 -17 72 -42 88 -56 16 -14 38
-25 48 -25 9 0 23 -7 30 -15 7 -8 21 -15 32 -15 10 0 36 -9 56 -19 117 -61
162 -81 184 -81 13 0 28 -4 34 -9 12 -11 126 -42 194 -52 56 -8 106 -18 215
-39 231 -44 570 -61 785 -37 30 3 102 10 160 16 105 11 166 22 250 47 25 7 63
16 85 20 22 4 66 20 97 35 32 16 64 29 72 29 18 0 76 32 76 43 0 4 12 7 28 7
15 0 53 16 85 35 33 20 75 42 95 51 59 24 272 170 272 187 0 4 6 7 14 7 26 0
241 189 251 221 3 9 21 25 41 35 19 10 52 44 72 74 20 30 41 57 45 59 22 9 89
94 142 180 6 9 25 33 43 54 17 20 32 43 32 50 0 6 14 32 30 56 17 24 30 55 30
68 0 12 4 23 9 23 5 0 21 26 35 58 15 31 35 73 45 92 10 19 24 60 31 90 8 30
19 62 25 70 21 29 45 90 51 133 4 23 12 53 19 67 7 14 22 75 34 135 12 61 26
119 31 130 19 45 32 181 37 380 4 186 0 262 -22 460 -10 81 -62 317 -85 381
-11 32 -25 73 -29 90 -5 18 -16 42 -25 55 -9 13 -16 32 -16 42 0 11 -9 36 -19
56 -10 20 -31 65 -46 101 -14 36 -37 79 -51 97 -13 17 -24 38 -24 45 -1 19
-63 125 -91 157 -13 14 -33 43 -43 63 -10 21 -30 45 -42 53 -13 9 -24 23 -24
31 0 25 -96 141 -197 240 -35 33 -63 65 -63 72 0 7 -4 12 -10 12 -5 0 -26 15
-46 34 -55 51 -73 66 -80 66 -4 0 -30 21 -58 46 -77 69 -77 69 -133 100 -29
16 -53 32 -53 37 0 4 -5 7 -12 7 -6 0 -21 9 -32 19 -29 26 -135 81 -157 81
-10 0 -22 7 -27 15 -9 17 -137 85 -158 85 -7 0 -34 11 -59 25 -26 13 -63 27
-83 31 -21 4 -41 10 -47 14 -22 16 -128 48 -141 43 -8 -3 -21 0 -28 6 -8 7
-52 21 -97 32 -192 46 -552 68 -819 51z m535 -106 c185 -20 267 -38 460 -98
166 -52 272 -93 335 -129 8 -5 38 -20 65 -33 259 -129 571 -369 722 -555 15
-19 47 -55 70 -81 23 -25 54 -63 69 -85 14 -22 29 -42 33 -45 13 -10 99 -147
134 -212 20 -37 41 -75 46 -85 6 -10 17 -36 26 -58 24 -58 39 -92 74 -165 17
-36 31 -74 31 -84 0 -10 6 -32 13 -49 8 -18 21 -57 30 -87 9 -30 23 -78 31
-107 9 -28 16 -65 16 -81 0 -16 7 -49 15 -73 10 -28 16 -81 17 -144 0 -57 6
-106 12 -114 15 -20 14 -284 -2 -396 -23 -160 -34 -239 -39 -285 -3 -25 -9
-50 -13 -55 -5 -6 -12 -35 -16 -65 -3 -30 -12 -62 -19 -70 -7 -8 -15 -31 -18
-50 -4 -32 -17 -72 -38 -125 -5 -11 -18 -44 -29 -74 -11 -30 -27 -63 -35 -75
-8 -11 -15 -31 -15 -43 0 -13 -4 -23 -8 -23 -5 0 -16 -19 -26 -42 -32 -74
-150 -266 -209 -338 -15 -19 -31 -40 -35 -45 -21 -30 -91 -116 -127 -154 -77
-86 -120 -127 -305 -289 -21 -17 -40 -32 -44 -32 -4 0 -42 -27 -85 -60 -43
-33 -82 -60 -86 -60 -4 0 -26 -13 -50 -29 -24 -16 -54 -32 -67 -36 -12 -5 -39
-18 -58 -31 -19 -13 -40 -24 -46 -24 -6 0 -17 -7 -24 -15 -7 -8 -21 -15 -31
-15 -16 0 -55 -16 -119 -50 -9 -4 -30 -11 -48 -14 -17 -4 -34 -12 -37 -17 -4
-5 -18 -9 -33 -9 -15 0 -61 -12 -102 -26 -43 -15 -114 -30 -165 -34 -49 -5
-108 -14 -130 -21 -56 -17 -661 -18 -692 0 -13 6 -60 14 -105 18 -45 3 -93 12
-108 20 -14 7 -36 13 -48 13 -84 0 -434 99 -483 136 -14 10 -55 28 -139 59
-25 9 -47 20 -50 24 -8 12 -102 76 -140 96 -33 17 -128 86 -225 164 -27 21
-68 52 -89 68 -61 43 -254 246 -315 331 -92 126 -162 237 -220 347 -18 33 -36
67 -40 75 -27 50 -89 200 -101 245 -5 17 -19 57 -30 90 -23 64 -46 151 -59
225 -4 25 -13 72 -19 105 -12 63 -31 240 -39 364 -12 175 62 640 131 821 7 19
21 60 31 90 10 30 31 80 46 110 16 30 29 63 29 72 0 9 5 20 10 23 6 3 20 27
31 53 37 80 165 286 206 332 13 14 23 29 23 33 0 39 390 431 481 483 11 6 30
20 42 31 60 53 381 243 411 243 6 0 25 7 41 16 38 21 167 74 178 74 5 0 23 6
40 14 18 8 52 19 77 26 25 6 70 18 100 27 30 8 80 18 111 23 31 4 71 12 90 18
19 6 95 16 169 22 74 6 137 14 140 17 8 8 228 -4 375 -21z"/>
<path d="M4345 6850 c-38 -4 -104 -11 -145 -15 -41 -3 -95 -13 -120 -20 -46
-14 -112 -30 -185 -44 -22 -4 -51 -13 -65 -19 -14 -6 -52 -18 -85 -28 -33 -10
-87 -30 -121 -46 -34 -15 -64 -28 -68 -28 -14 0 -155 -71 -161 -81 -4 -5 -14
-9 -24 -9 -10 0 -31 -11 -47 -25 -16 -14 -34 -25 -40 -25 -6 0 -41 -22 -77
-50 -36 -27 -68 -50 -71 -50 -11 0 -80 -51 -145 -108 -14 -13 -48 -42 -74 -65
-60 -53 -217 -210 -217 -218 0 -3 -18 -25 -41 -50 -22 -24 -52 -62 -67 -84
-15 -22 -32 -44 -38 -50 -14 -13 -69 -97 -90 -138 -9 -17 -23 -37 -30 -45 -8
-7 -14 -19 -14 -27 0 -12 -51 -118 -67 -140 -5 -5 -19 -37 -32 -70 -12 -33
-29 -74 -36 -90 -22 -48 -66 -186 -75 -235 -16 -78 -38 -168 -43 -177 -10 -16
-29 -288 -28 -411 1 -145 17 -345 30 -387 5 -17 17 -66 26 -110 9 -44 23 -97
31 -118 8 -20 14 -47 14 -58 0 -17 14 -56 50 -134 5 -11 18 -42 29 -70 30 -78
108 -231 148 -293 21 -32 42 -65 48 -74 119 -198 344 -435 577 -608 37 -28 70
-50 74 -50 3 0 24 -14 45 -31 69 -54 337 -192 446 -228 33 -11 72 -25 85 -30
12 -5 50 -17 83 -26 33 -9 77 -23 98 -31 20 -8 53 -14 71 -14 18 0 49 -6 67
-14 19 -7 110 -21 203 -31 252 -27 604 -14 771 27 22 5 63 13 90 18 28 5 83
20 122 34 40 14 81 26 91 26 9 0 26 6 37 14 11 7 36 17 55 21 19 4 41 11 50
15 8 5 77 39 153 77 191 95 189 93 220 120 16 12 33 23 37 23 9 0 179 125 190
139 3 3 23 20 45 36 66 49 247 237 261 273 8 17 20 32 27 32 6 0 32 30 57 66
25 36 53 73 63 82 9 9 17 23 17 31 0 8 7 23 17 33 19 22 10 36 -12 18 -12 -10
-15 -10 -15 3 0 18 29 37 45 30 6 -2 21 11 34 27 18 25 20 34 11 45 -16 19 -8
40 16 40 16 0 20 10 25 55 7 62 28 113 65 161 6 8 19 46 29 84 10 39 24 82 31
97 8 15 14 38 14 51 0 12 5 28 11 34 6 6 17 46 25 89 61 336 67 523 25 834
-10 82 -41 219 -53 243 -5 10 -18 50 -28 89 -10 39 -23 75 -29 81 -6 6 -11 21
-11 33 0 12 -7 35 -15 51 -8 15 -37 75 -65 133 -69 143 -98 195 -146 260 -22
30 -47 66 -54 79 -12 24 -90 119 -140 172 -14 14 -41 44 -61 65 -21 21 -42 44
-47 49 -99 98 -178 166 -216 185 -16 8 -35 25 -44 37 -8 13 -20 23 -27 23 -7
0 -24 9 -37 20 -61 52 -72 60 -88 60 -9 0 -25 9 -35 20 -9 10 -34 24 -54 31
-20 6 -58 23 -86 39 -27 15 -62 30 -77 34 -19 4 -28 13 -28 26 0 17 -7 20 -50
20 -37 0 -48 3 -44 14 4 9 -8 15 -43 19 -27 3 -69 17 -93 31 -25 14 -61 26
-80 26 -44 0 -152 23 -205 43 -71 27 -296 41 -543 33 -241 -8 -246 -8 -447
-56 -71 -17 -145 -34 -164 -37 -19 -3 -50 -16 -69 -29 -19 -13 -42 -25 -51
-25 -9 -1 -23 -3 -31 -3 -28 -3 -140 -48 -151 -62 -6 -8 -20 -14 -30 -14 -10
0 -22 -6 -26 -13 -4 -7 -35 -22 -68 -32 -33 -10 -74 -30 -91 -45 -18 -15 -56
-39 -85 -53 -30 -14 -60 -35 -67 -46 -7 -12 -16 -21 -22 -21 -11 0 -97 -57
-105 -70 -3 -5 -30 -25 -59 -45 -29 -19 -58 -45 -65 -58 -7 -14 -30 -34 -51
-46 -29 -16 -37 -26 -33 -41 4 -14 -3 -22 -31 -34 -20 -8 -36 -19 -36 -24 0
-5 -16 -26 -36 -48 -20 -21 -54 -58 -75 -81 -22 -23 -39 -46 -39 -52 0 -6 -9
-16 -20 -23 -12 -8 -20 -24 -20 -39 0 -15 -7 -32 -16 -40 -8 -7 -31 -36 -49
-64 -19 -28 -44 -60 -55 -70 -20 -18 -20 -18 -20 12 0 19 10 41 26 58 14 16
35 46 46 67 12 22 29 45 39 51 11 7 19 19 19 28 0 9 17 37 38 62 91 110 167
193 186 204 12 6 21 15 21 20 0 4 12 25 25 45 19 29 32 38 53 38 24 0 31 7 44
40 9 22 20 40 26 40 5 0 30 17 56 39 25 21 66 51 91 66 25 15 61 41 80 58 64
54 168 113 224 127 38 9 56 18 59 31 3 13 14 19 31 19 14 0 26 4 26 9 0 11 80
51 102 51 9 0 21 7 28 15 7 8 22 15 34 15 11 1 39 8 61 16 75 28 220 66 282
75 34 4 70 13 80 18 28 16 282 35 458 34 190 -1 436 -30 518 -62 16 -6 42 -11
58 -11 17 0 40 -5 52 -12 12 -6 45 -17 72 -24 108 -28 140 -38 145 -45 8 -11
88 -39 112 -39 10 0 21 -7 24 -15 4 -8 14 -15 24 -15 28 0 50 -11 50 -25 0
-20 21 -32 68 -38 51 -6 55 7 7 23 -19 6 -44 22 -57 35 -13 14 -29 25 -36 25
-7 0 -42 14 -77 30 -35 17 -73 30 -83 30 -11 0 -25 7 -32 15 -7 8 -20 15 -29
15 -10 0 -26 7 -37 15 -10 8 -27 15 -37 15 -10 0 -57 13 -105 29 -48 16 -105
33 -127 36 -22 4 -65 14 -95 21 -30 8 -73 14 -96 14 -24 0 -54 4 -67 9 -32 12
-415 21 -502 11z m626 -220 c161 -32 293 -68 454 -127 63 -23 218 -95 236
-110 8 -7 21 -13 27 -13 27 0 280 -172 381 -259 73 -63 211 -198 256 -251 79
-93 186 -246 252 -363 40 -71 73 -133 73 -137 0 -4 20 -53 45 -110 25 -57 45
-111 45 -122 0 -10 6 -31 13 -46 8 -15 22 -65 32 -112 10 -47 25 -112 33 -145
13 -47 16 -120 16 -345 1 -245 -2 -296 -18 -360 -16 -68 -55 -217 -75 -295
-12 -45 -103 -251 -149 -339 -40 -76 -146 -242 -167 -261 -5 -5 -26 -30 -45
-55 -97 -128 -321 -346 -415 -405 -18 -11 -50 -33 -71 -48 -56 -40 -193 -127
-201 -127 -4 0 -45 -20 -92 -44 -192 -98 -326 -141 -676 -218 -42 -9 -148 -13
-360 -13 -326 1 -375 6 -593 67 -56 15 -108 28 -114 28 -6 0 -41 11 -77 25
-235 91 -430 192 -564 292 -31 24 -62 43 -67 43 -6 0 -10 4 -10 8 0 5 -20 23
-44 40 -114 82 -343 326 -429 457 -14 22 -35 51 -46 65 -11 14 -21 30 -21 35
0 6 -11 27 -25 48 -60 87 -155 305 -203 462 -70 229 -98 509 -77 765 19 221
34 291 120 555 58 179 226 467 367 630 105 121 255 262 378 355 66 50 121 90
124 90 3 0 24 12 48 28 62 39 73 45 183 101 55 28 104 51 108 51 5 0 32 11 60
23 154 70 451 144 627 158 187 13 544 2 661 -21z m-2571 -1224 c0 -24 -40
-104 -55 -109 -25 -10 -26 9 -2 39 12 16 21 30 19 31 -1 2 0 14 4 28 6 26 34
35 34 11z m-88 -228 c-6 -18 -15 -55 -22 -83 -13 -57 -26 -76 -36 -51 -11 29
47 188 63 172 3 -2 0 -19 -5 -38z m-74 -280 c-13 -23 -13 -23 -16 10 -2 18 3
41 10 49 12 15 13 13 16 -10 2 -14 -3 -36 -10 -49z m-28 -244 c0 -8 -4 -14
-10 -14 -5 0 -10 9 -10 21 0 11 5 17 10 14 6 -3 10 -13 10 -21z m-5 -146 c-8
-97 -15 -99 -15 -5 0 47 4 77 10 77 7 0 9 -25 5 -72z m2097 -2260 c-9 -9 -15
-9 -24 0 -9 9 -7 12 12 12 19 0 21 -3 12 -12z"/>
<path d="M4712 6257 c-8 -9 -12 -136 -13 -393 l-1 -379 26 -15 c44 -26 47 -10
49 221 2 191 4 217 21 242 21 32 56 43 84 28 39 -21 45 -59 40 -275 -3 -202
-3 -205 18 -215 15 -7 27 -6 41 4 17 12 18 21 12 92 -4 43 -8 143 -8 223 -1
157 -9 201 -42 236 -35 38 -74 40 -120 8 -32 -22 -42 -25 -49 -15 -7 13 -6 74
5 175 2 22 -1 48 -6 58 -11 21 -42 24 -57 5z"/>
<path d="M4275 6240 c-7 -23 2 -77 14 -85 5 -2 35 0 67 5 35 6 62 6 67 1 6 -6
9 -155 8 -345 l-2 -335 26 -7 c15 -4 31 -2 37 4 8 8 10 116 9 343 -2 250 1
334 10 339 6 5 37 6 68 3 66 -6 84 7 79 59 l-3 33 -187 3 c-180 2 -187 2 -193
-18z"/>
<path d="M3486 6083 c-36 -6 -132 -78 -172 -130 -30 -39 -84 -121 -84 -127 0
-16 -117 -241 -145 -280 -36 -51 -44 -93 -23 -114 19 -19 42 -14 68 13 33 35
133 93 203 117 43 15 72 19 106 14 126 -17 208 -99 236 -235 6 -30 16 -56 21
-58 13 -4 44 50 44 79 0 12 7 46 16 73 21 71 23 372 1 435 -8 25 -17 57 -21
71 -3 15 -26 50 -52 78 -58 64 -101 78 -198 64z m94 -112 c29 -5 39 -14 57
-51 12 -25 25 -61 29 -80 4 -19 9 -39 12 -45 4 -5 7 -48 9 -95 3 -121 -23
-157 -76 -106 -39 37 -172 58 -268 41 -46 -8 -61 12 -56 77 3 32 11 59 22 68
9 8 24 33 34 56 10 22 32 48 48 58 17 10 29 26 29 37 0 24 75 62 105 53 11 -3
36 -9 55 -13z"/>
<path d="M5150 6043 c-24 -13 -43 -35 -64 -78 -29 -58 -30 -64 -30 -210 0
-144 1 -152 27 -203 59 -113 171 -125 240 -24 54 77 54 132 1 132 -18 0 -28
-10 -42 -42 -11 -24 -29 -52 -41 -62 -20 -19 -23 -19 -57 -3 -38 18 -57 53
-69 123 -4 30 -3 44 7 50 7 5 63 7 124 5 93 -2 112 0 117 12 3 9 2 51 -2 94
-9 84 -37 157 -76 193 -32 30 -91 36 -135 13z m105 -99 c28 -30 49 -93 39
-118 -5 -13 -22 -16 -90 -16 l-84 0 0 34 c0 103 79 161 135 100z"/>
<path d="M3353 5450 c-77 -18 -150 -75 -172 -133 -15 -40 -13 -127 4 -157 33
-59 10 -87 -45 -55 -33 19 -114 19 -150 0 -16 -8 -41 -31 -56 -50 -25 -33 -26
-41 -22 -108 5 -71 45 -207 76 -257 36 -57 77 -102 101 -111 73 -28 141 33
141 126 0 45 -4 55 -33 83 -51 50 -125 39 -79 -11 31 -35 40 -60 31 -84 -12
-33 -44 -28 -72 10 -35 46 -85 143 -97 187 -39 144 173 169 267 32 80 -118 95
-218 43 -290 -16 -23 -30 -44 -30 -46 0 -3 15 -6 33 -8 23 -2 32 -8 31 -20 0
-10 -1 -42 -2 -71 l-2 -54 -52 -17 c-52 -18 -54 -18 -111 4 -159 60 -279 265
-294 503 -6 99 -16 122 -49 115 -22 -4 -29 -19 -48 -108 -9 -41 -29 -118 -45
-170 -54 -171 -61 -206 -61 -284 0 -167 57 -308 154 -378 34 -24 48 -28 106
-28 56 0 78 5 125 30 106 56 211 165 245 256 5 12 18 28 29 34 18 9 22 6 35
-23 16 -39 62 -63 101 -53 43 11 41 33 -6 75 l-44 39 0 94 c1 84 4 100 30 153
77 151 223 243 255 159 20 -51 -43 -303 -82 -327 -22 -14 -48 -1 -48 23 0 11
9 37 20 57 14 27 17 40 9 50 -25 29 -84 -37 -95 -105 -18 -117 77 -186 150
-109 105 112 164 422 97 515 -20 29 -28 32 -72 32 -27 0 -49 5 -49 10 0 6 12
28 26 50 28 42 43 143 26 169 -14 21 -41 6 -47 -26 -11 -52 -50 -117 -84 -140
-115 -77 -282 45 -281 204 1 77 49 113 149 113 71 0 96 -17 96 -65 l0 -40 -44
0 c-55 0 -61 -15 -26 -61 24 -31 31 -35 68 -32 34 2 45 9 64 37 32 47 32 148
1 199 -36 59 -122 84 -215 62z m141 -550 c10 -10 -81 -110 -99 -110 -6 0 -17
25 -24 56 -11 47 -11 58 0 65 16 10 109 1 123 -11z m-635 -278 c10 -20 24 -56
30 -78 11 -42 49 -82 155 -164 25 -19 45 -40 45 -47 1 -7 8 -16 16 -21 13 -7
11 -13 -15 -35 -16 -15 -30 -32 -30 -38 0 -16 -59 -37 -126 -44 l-60 -7 -36
40 c-48 53 -73 137 -62 212 4 30 6 81 5 112 -2 42 3 64 16 83 25 34 39 31 62
-13z"/>
<path d="M5681 5401 c-15 -15 -18 -28 -14 -63 7 -54 23 -73 57 -64 24 6 26 10
26 66 0 48 -4 61 -19 70 -26 13 -28 13 -50 -9z"/>
<path d="M6039 5399 c-13 -13 -19 -29 -16 -42 3 -12 9 -61 12 -109 8 -97 3
-105 -45 -68 -61 48 -133 2 -165 -105 -37 -124 -18 -346 35 -421 40 -56 108
-67 153 -27 18 17 19 17 32 0 8 -11 23 -17 37 -15 l23 3 1 393 c1 369 0 393
-17 402 -24 13 -26 13 -50 -11z m-59 -289 c36 -19 55 -96 54 -215 0 -132 -16
-185 -57 -199 -62 -22 -98 39 -105 179 -5 115 15 205 51 230 25 18 32 18 57 5z"/>
<path d="M4404 5391 c-91 -55 -144 -202 -144 -390 1 -263 121 -432 275 -390
83 23 146 126 167 274 13 91 3 275 -19 345 -25 76 -76 147 -120 165 -50 21
-121 19 -159 -4z m134 -85 c67 -35 108 -173 99 -339 -6 -119 -25 -180 -71
-231 -29 -31 -40 -36 -79 -36 -42 0 -49 4 -80 43 -55 66 -70 135 -65 291 3
116 7 138 30 188 40 86 102 117 166 84z"/>
<path d="M5320 5395 c-10 -12 -11 -45 -5 -153 5 -75 8 -146 7 -157 0 -11 -2
-120 -4 -243 -4 -241 -2 -250 47 -238 l25 6 0 221 0 221 33 33 c25 25 40 32
56 28 45 -12 51 -46 51 -282 0 -144 4 -222 11 -226 5 -4 21 -4 35 -1 l26 7 -4
242 c-3 198 -7 249 -20 278 -33 70 -104 90 -152 42 -14 -14 -30 -23 -34 -19
-4 4 -7 63 -7 129 l0 122 -26 3 c-14 2 -31 -4 -39 -13z"/>
<path d="M4870 5184 c-30 -26 -31 -26 -45 -8 -10 14 -18 16 -29 9 -13 -8 -16
-54 -20 -292 l-5 -283 24 -6 c55 -14 55 -13 55 229 0 204 2 225 18 240 10 10
30 17 45 17 48 0 66 76 25 104 -29 21 -31 21 -68 -10z"/>
<path d="M5100 5199 c-55 -22 -88 -75 -115 -187 -32 -130 -6 -293 57 -366 27
-31 41 -39 81 -43 44 -5 49 -3 81 30 38 40 69 121 64 164 -2 21 -9 29 -27 31
-28 4 -41 -12 -41 -54 0 -41 -34 -84 -66 -84 -46 0 -70 38 -84 132 -16 116 0
225 40 268 16 17 35 30 44 30 23 0 54 -35 62 -67 10 -48 13 -53 32 -53 21 0
42 18 42 38 0 8 -13 42 -30 77 -23 47 -38 67 -64 79 -39 18 -42 18 -76 5z"/>
<path d="M5684 5189 c-8 -14 -8 -565 1 -579 8 -14 42 -13 51 2 4 6 7 137 8
290 1 253 -1 281 -16 289 -22 12 -35 11 -44 -2z"/>
<path d="M3842 5001 c-11 -7 -12 -26 -2 -103 8 -69 8 -120 0 -189 -11 -96 -35
-209 -50 -238 -5 -9 -20 -41 -33 -71 -47 -104 -166 -210 -236 -210 -15 0 -30
-3 -34 -6 -7 -8 14 -54 25 -54 5 0 27 -17 51 -39 87 -80 232 -121 323 -91 40
13 105 59 136 95 26 31 70 125 80 170 5 22 13 77 19 123 10 74 9 90 -11 163
-12 45 -47 129 -77 188 -81 152 -90 171 -112 224 -21 48 -45 60 -79 38z m152
-393 c29 -49 45 -134 39 -213 -6 -84 -17 -119 -55 -163 -15 -18 -28 -40 -28
-48 0 -8 -7 -29 -16 -45 -11 -22 -21 -29 -37 -27 -12 1 -26 0 -32 -4 -21 -13
-113 -20 -120 -9 -3 6 -15 11 -26 11 -12 0 -23 10 -29 26 -11 27 -7 35 32 79
55 61 108 142 128 198 12 34 26 66 31 72 5 5 9 21 9 36 0 15 4 30 9 33 4 3 11
32 14 65 3 33 8 65 12 71 7 12 32 -17 69 -82z"/>
<path d="M4415 4501 c-73 -33 -105 -94 -105 -199 0 -123 35 -169 180 -235 88
-40 110 -66 110 -133 0 -167 -206 -178 -227 -12 -7 52 -18 68 -48 68 -42 0
-49 -23 -29 -97 22 -84 40 -114 88 -152 53 -42 112 -50 171 -21 55 27 80 60
100 136 36 137 -21 277 -125 309 -52 16 -120 56 -136 80 -21 32 -15 117 11
144 30 34 67 41 112 21 42 -19 63 -55 63 -111 0 -19 6 -30 20 -34 27 -9 74 21
66 41 -3 8 -13 39 -21 69 -20 68 -47 102 -99 126 -51 23 -80 23 -131 0z"/>
<path d="M5670 4495 c-10 -12 -10 -38 -1 -122 6 -58 9 -109 6 -112 -3 -3 -14
0 -23 7 -53 37 -74 44 -102 32 -33 -14 -72 -68 -91 -125 -7 -24 -13 -93 -13
-170 -1 -106 3 -139 18 -180 27 -69 44 -94 77 -111 38 -19 62 -18 93 7 26 21
35 20 68 -3 12 -9 21 -9 28 -2 11 11 17 765 5 783 -9 16 -51 13 -65 -4z m-41
-292 c30 -25 44 -116 38 -245 -5 -118 -18 -153 -62 -164 -60 -15 -94 61 -95
206 0 117 10 165 40 198 25 27 51 28 79 5z"/>
<path d="M4819 4287 c-20 -13 -46 -45 -61 -76 -27 -52 -28 -61 -28 -199 0
-165 14 -223 66 -273 71 -68 161 -43 210 59 32 67 29 96 -9 100 -25 3 -30 -2
-49 -47 -23 -56 -51 -72 -93 -53 -29 13 -65 88 -68 140 l-2 37 120 5 120 5 0
85 c0 73 -4 94 -28 142 -45 92 -111 120 -178 75z m91 -77 c20 -11 60 -91 60
-120 0 -31 -22 -38 -100 -31 -72 6 -75 7 -78 33 -2 14 6 45 17 67 29 56 61 72
101 51z"/>
<path d="M5185 4292 c-41 -25 -50 -38 -74 -102 -29 -78 -32 -280 -6 -362 33
-104 111 -150 189 -113 45 21 88 91 90 143 1 33 -2 37 -27 40 -25 3 -30 -2
-49 -47 -23 -57 -51 -72 -94 -52 -30 13 -61 79 -66 136 l-3 40 120 5 120 5 3
63 c8 179 -99 307 -203 244z m96 -89 c21 -25 49 -90 49 -113 0 -28 -14 -32
-98 -34 l-77 -1 -3 32 c-6 56 47 133 91 133 13 0 30 -8 38 -17z"/>
<path d="M3506 3383 c-3 -4 -6 -60 -6 -125 0 -118 0 -119 23 -116 20 3 22 7
19 59 -3 42 0 58 13 69 27 22 47 -13 43 -75 -3 -45 -1 -50 19 -53 17 -3 26 3
33 23 10 26 30 26 30 0 0 -22 39 -38 76 -30 46 8 46 35 0 35 -19 0 -37 3 -39
8 -8 12 5 102 15 102 5 0 14 -14 20 -31 13 -36 42 -36 45 1 7 66 -87 96 -115
38 -17 -36 -33 -35 -55 1 -13 22 -26 31 -50 33 -26 2 -33 8 -35 30 -3 25 -24
43 -36 31z"/>
<path d="M4160 3375 c-7 -8 -10 -53 -8 -121 3 -101 4 -109 23 -109 18 0 20 7
21 85 0 47 2 90 4 95 11 41 -17 78 -40 50z"/>
<path d="M4818 3281 c-1 -56 -2 -109 -2 -118 -1 -12 6 -18 19 -18 19 0 20 6
19 115 0 99 -3 115 -17 118 -15 3 -17 -9 -19 -97z"/>
<path d="M5300 3261 l0 -121 63 0 c57 0 65 2 77 24 7 14 13 43 13 66 0 48 -31
87 -71 92 -18 2 -28 10 -32 28 -4 16 -14 26 -28 28 -22 3 -22 1 -22 -117z
m102 2 c25 -22 23 -59 -4 -78 -22 -15 -24 -14 -40 6 -21 25 -22 42 -6 69 16
24 26 25 50 3z"/>
<path d="M5808 3373 c-2 -5 -2 -59 0 -120 3 -90 6 -113 18 -113 11 0 14 22 14
120 0 98 -3 120 -14 120 -8 0 -16 -3 -18 -7z"/>
<path d="M3260 3288 c0 -18 7 -42 15 -52 8 -11 15 -32 15 -47 0 -31 23 -54 45
-45 10 3 15 18 15 41 0 29 3 36 18 33 9 -2 22 -19 28 -38 18 -56 40 -50 59 15
17 60 17 106 0 106 -5 0 -12 -14 -15 -31 -7 -42 -20 -42 -34 0 -15 47 -46 48
-58 1 -10 -37 -13 -36 -36 11 -24 46 -52 50 -52 6z"/>
<path d="M3835 3311 c-9 -16 -14 -147 -5 -161 4 -7 15 -10 24 -7 14 5 16 16
10 54 -5 42 -3 52 20 77 13 17 23 33 20 38 -7 11 -62 10 -69 -1z"/>
<path d="M3943 3296 c-29 -31 -32 -115 -5 -138 21 -19 82 -31 101 -19 21 14 5
44 -20 38 -27 -7 -49 1 -49 19 0 9 11 14 33 14 18 0 42 7 53 15 19 14 19 15
-2 52 -28 49 -76 57 -111 19z m57 -47 c0 -17 -4 -28 -10 -24 -5 3 -10 17 -10
31 0 13 5 24 10 24 6 0 10 -14 10 -31z"/>
<path d="M4246 3286 c-30 -40 -33 -72 -8 -115 15 -28 22 -31 65 -31 34 0 47 4
47 14 0 9 -12 16 -32 18 -32 3 -33 4 -35 56 -1 39 2 52 13 52 9 0 14 -11 14
-29 0 -36 8 -41 38 -30 29 11 29 49 -1 77 -35 33 -70 28 -101 -12z"/>
<path d="M4410 3305 c-13 -16 -7 -45 9 -45 5 0 13 5 16 10 3 6 15 10 26 10 16
0 19 -7 19 -55 0 -48 -3 -55 -19 -55 -25 0 -36 17 -22 34 12 14 5 26 -15 26
-22 0 -35 -36 -24 -65 9 -24 13 -26 67 -23 l58 3 -4 70 c-2 45 -9 76 -19 88
-19 21 -75 23 -92 2z"/>
<path d="M4560 3301 c-5 -11 -10 -52 -10 -91 0 -63 2 -71 18 -68 13 3 17 14
17 54 0 44 4 54 29 76 34 29 28 48 -14 48 -19 0 -33 -7 -40 -19z"/>
<path d="M4672 3308 c-5 -7 -11 -47 -13 -88 -4 -71 -3 -75 19 -78 21 -3 22 0
22 55 0 73 9 89 39 73 19 -10 22 -19 20 -66 -3 -59 2 -70 26 -60 13 5 14 17 9
73 -4 38 -13 76 -22 86 -18 20 -84 23 -100 5z"/>
<path d="M4911 3306 c-7 -9 -11 -42 -9 -87 2 -61 6 -74 21 -77 15 -3 17 5 17
55 0 66 9 87 33 77 21 -8 31 -45 23 -78 -7 -30 2 -56 20 -56 18 0 20 150 2
168 -17 17 -93 15 -107 -2z"/>
<path d="M5076 3298 c-9 -12 -16 -43 -16 -68 0 -58 22 -90 61 -90 20 0 29 -4
26 -12 -2 -7 -17 -13 -33 -13 -16 0 -35 -4 -43 -9 -20 -13 14 -36 53 -36 63 0
86 39 86 147 0 94 -7 103 -79 103 -30 0 -44 -6 -55 -22z m74 -37 c14 -27 13
-54 -4 -76 -14 -19 -15 -19 -35 -1 -25 23 -27 53 -4 78 21 23 30 23 43 -1z"/>
<path d="M5494 3299 c-23 -25 -26 -118 -4 -144 17 -21 105 -18 105 4 0 10 -11
15 -35 15 l-35 1 0 50 c0 39 4 50 18 53 13 3 17 -3 17 -27 0 -36 16 -49 37
-28 18 18 12 57 -13 81 -22 23 -67 20 -90 -5z"/>
<path d="M5647 3290 c-23 -28 -26 -38 -21 -69 10 -50 34 -79 69 -83 40 -4 33
-23 -8 -23 -25 0 -32 -4 -32 -20 0 -16 8 -21 41 -23 37 -3 45 1 63 27 17 24
21 44 21 114 0 47 -4 88 -9 91 -5 4 -29 9 -53 12 -39 5 -45 3 -71 -26z m99
-53 c6 -20 -20 -67 -38 -67 -20 0 -48 32 -48 55 0 31 39 56 62 41 10 -6 21
-19 24 -29z"/>
<path d="M5898 3313 c-19 -5 -25 -28 -24 -108 1 -53 3 -60 21 -60 17 0 20 8
23 55 6 101 49 102 54 2 3 -50 6 -57 26 -60 21 -3 22 0 22 65 -1 100 -35 129
-122 106z"/>
<path d="M6062 3308 c-7 -7 -12 -24 -12 -39 0 -20 9 -32 35 -48 19 -11 35 -24
35 -30 0 -13 -28 -22 -35 -11 -11 18 -35 10 -35 -10 0 -40 99 -46 124 -8 17
28 -4 72 -37 76 -15 2 -27 8 -27 14 0 6 10 8 24 4 34 -8 50 14 30 42 -17 25
-81 31 -102 10z"/>
<path d="M3045 3180 c-17 -19 -17 -22 -3 -37 20 -19 48 -10 48 15 0 33 -24 45
-45 22z"/>
<path d="M3115 3174 c-12 -12 -13 -19 -4 -30 15 -18 30 -18 54 0 16 12 17 16
6 30 -17 20 -35 20 -56 0z"/>
<path d="M3195 3169 c-7 -20 7 -38 28 -39 14 0 19 30 7 45 -17 21 -27 19 -35
-6z"/>
<path d="M5800 6491 c0 -12 76 -51 98 -50 10 0 5 6 -14 14 -17 8 -36 21 -43
29 -14 17 -41 22 -41 7z"/>
</g>
</svg>
